<svg preserveAspectRatio="none" width="100%" height="100%" overflow="visible" style="display: block;" viewBox="0 0 34 46" fill="none" xmlns="http://www.w3.org/2000/svg">
<path id="icon" d="M16.9167 29C14.9028 29 13.191 28.2951 11.7813 26.8854C10.3715 25.4757 9.66667 23.7639 9.66667 21.75V7.25C9.66667 5.23611 10.3715 3.52431 11.7813 2.11458C13.191 0.704861 14.9028 0 16.9167 0C18.9306 0 20.6424 0.704861 22.0521 2.11458C23.4618 3.52431 24.1667 5.23611 24.1667 7.25V21.75C24.1667 23.7639 23.4618 25.4757 22.0521 26.8854C20.6424 28.2951 18.9306 29 16.9167 29ZM14.5 45.9167V38.4854C10.3111 37.9215 6.84722 36.0486 4.10833 32.8667C1.36944 29.6847 0 25.9792 0 21.75H4.83333C4.83333 25.0931 6.01146 27.9427 8.36771 30.299C10.724 32.6552 13.5736 33.8333 16.9167 33.8333C20.2597 33.8333 23.1094 32.6552 25.4656 30.299C27.8219 27.9427 29 25.0931 29 21.75H33.8333C33.8333 25.9792 32.4639 29.6847 29.725 32.8667C26.9861 36.0486 23.5222 37.9215 19.3333 38.4854V45.9167H14.5Z" fill="var(--fill-0, white)"/>
</svg>
